<svg version="1.1" id="Layer_1" xmlns="http://www.w3.org/2000/svg" xmlns:xlink="http://www.w3.org/1999/xlink" x="0px" y="0px"
   width="169.015px" height="21.565px" viewBox="0 0 169.015 21.565" enable-background="new 0 0 169.015 21.565"
   xml:space="preserve">
<g>
  <path fill="#000000" d="M11.941,0.059H0.009L0,2.879h2.28v15.846H0.021l-0.018,2.817h7.49l0.018-2.823H5.112v-5.304h7.289
    c1.18,0,2.443-0.596,3.464-1.633c1.35-1.371,2.105-3.295,2.074-5.279C17.844,0.465,12.014,0.062,11.941,0.059z M15.096,6.855
    c-0.043,3.573-3.094,3.753-3.213,3.759H5.182L5.16,2.916c1.206-0.001,6.375-0.006,6.769-0.006c0.012,0,1.229,0.011,2.162,0.954
    C14.773,4.554,15.111,5.561,15.096,6.855z"/>
  <path fill="#000000" d="M40.367,18.726c-0.003,0-0.169,0.01-0.412,0.01c-0.911,0-1.601-0.127-1.798-0.329
    c-0.009-0.01-0.909-0.972-2.159-3.29c-0.592-1.1-0.956-1.695-1.185-2.021c2.814-0.552,4.704-3.199,4.649-6.604
    c-0.096-6.037-5.925-6.44-5.998-6.444H21.422l-0.008,2.835h2.389V18.73h-2.389l-0.006,2.786h7.53l0.007-2.78l-2.312-0.008v-5.326
    c0.716-0.004,2.859-0.011,4.813,0.001c0.414,0.003,1.311,1.667,2.031,3.004c0.718,1.331,1.531,2.841,2.415,3.986
    c0.783,1.018,1.916,1.163,2.919,1.171l0.159,0.001l1.661-0.005l-0.001-2.849L40.367,18.726z M36.618,6.844
    c-0.044,3.573-3.095,3.753-3.214,3.759h-6.7l-0.021-7.721c1.208,0.003,6.373,0.017,6.769,0.017c0.012,0,1.23,0.011,2.162,0.954
    C36.296,4.543,36.634,5.55,36.618,6.844z"/>
  <path fill="#000000" d="M64.216,18.718L57.018,0.199l-0.069-0.185h-6.791L50.134,2.9h2.438l-6.249,15.836l-2.281,0.004
    l-0.005,2.779l7.429-0.003v-2.778h-2.039l1.245-3.125l9.299-0.012l1.229,3.132h-2.035l-0.009,2.808l7.391,0.005l-0.005-2.818
    L64.216,18.718z M58.862,12.853l-7.17-0.012l3.569-9.359L58.862,12.853z"/>
  <polygon fill="#000000" points="69.831,2.862 72.075,2.857 72.084,18.713 69.808,18.708 69.808,21.52 86.576,21.52 86.576,16.402 
    83.785,16.402 83.785,18.714 74.923,18.736 74.916,12.189 83.056,12.196 83.062,9.356 74.907,9.356 74.907,2.853 83.797,2.853 
    83.812,5.188 86.578,5.184 86.578,0.037 69.82,0.037  "/>
  <path fill="#000000" d="M106.02,18.045l-6.071-7.198c0.799-0.931,4.666-5.447,5.689-6.803c0.809-1.073,1.742-1.189,2.107-1.189
    c0.086,0,0.139,0.007,0.185,0.011h1.181l0.006-2.839h-1.93c-1.834,0-2.854,1.233-2.893,1.281l-6.905,8.106l-0.427,0.001
    l-0.66-0.001V2.845h2.321l-0.011-2.772H91.18V2.85l2.222-0.002l0.009,15.898h-2.218l0.011,2.773h7.447l0.009-2.781h-2.369v-6.479
    h1.189c0.766,0.932,6.539,7.947,7.379,8.594c0.883,0.681,2.143,0.7,2.283,0.7h2.002l0.006-2.812l-0.836-0.006
    C106.538,18.736,106.04,18.072,106.02,18.045z M107.142,21.303L107.142,21.303L107.142,21.303L107.142,21.303z"/>
  <polygon fill="#000000" points="148.035,18.698 139.197,18.695 139.2,2.837 141.546,2.838 141.546,0.015 134.097,0.015 
    134.097,2.829 136.337,2.825 136.345,18.695 134.111,18.695 134.132,21.501 150.873,21.501 150.873,16.349 148.044,16.331   "/>
  <polygon fill="#000000" points="169.015,5.182 169.007,0 149.833,0.025 149.818,5.134 152.675,5.14 152.667,2.846 158.002,2.828 
    158.002,18.701 155.684,18.701 155.684,21.482 163.158,21.494 163.146,18.708 160.853,18.707 160.853,2.84 166.181,2.846 
    166.181,5.161   "/>
  <polygon fill="#000000" points="112.794,2.851 115.039,2.847 115.046,18.701 112.771,18.698 112.771,21.509 129.539,21.509 
    129.539,16.392 126.748,16.392 126.748,18.703 117.886,18.724 117.878,12.177 126.019,12.185 126.025,9.345 117.872,9.345 
    117.872,2.841 126.761,2.841 126.775,5.175 129.541,5.174 129.541,0.026 112.783,0.026   "/>
</g>
</svg>